<?xml version="1.0" encoding="utf-8"?>
<!-- Generator: Adobe Illustrator 28.2.0, SVG Export Plug-In . SVG Version: 6.00 Build 0)  -->
<svg version="1.1" id="Livello_1" xmlns="http://www.w3.org/2000/svg" xmlns:xlink="http://www.w3.org/1999/xlink" x="0px" y="0px"
	 viewBox="0 0 315.6 254.9" style="enable-background:new 0 0 315.6 254.9;" xml:space="preserve">
<style type="text/css">
	.st0{fill:#FFFFFF;}
</style>
<g>
	<path class="st0" d="M303.1,86.2c0.5,4.9,0.8,9.9,0.8,14.9c0,80.6-65.4,146-146,146s-146-65.4-146-146c0-4.7,0.2-9.3,0.7-13.9l0,0
		c18.8,71.3,69.4,116.3,145.4,116.3s126-42.8,145.4-116.3L303.1,86.2L303.1,86.2z"/>
	<path class="st0" d="M157.8,7.8l3.9,34.5c2.4,21,18.9,37.6,39.9,40l34.6,3.9l-34.6,3.9c-21,2.4-37.6,18.9-39.9,40l-3.9,34.5
		l-3.9-34.5c-2.4-21-18.9-37.6-40-40l-34.6-3.9l34.6-3.9c21-2.4,37.6-18.9,40-40L157.8,7.8z"/>
</g>
</svg>
