<?xml version="1.0" encoding="utf-8"?>
<!-- Generator: Adobe Illustrator 28.2.0, SVG Export Plug-In . SVG Version: 6.00 Build 0)  -->
<svg version="1.1" id="Livello_1" xmlns="http://www.w3.org/2000/svg" xmlns:xlink="http://www.w3.org/1999/xlink" x="0px" y="0px"
	 viewBox="0 0 200 200" style="enable-background:new 0 0 200 200;" xml:space="preserve">
<style type="text/css">
	.st0{fill:none;}
</style>
<g>
	<path class="st0" d="M100.1,146.4c-46.3,0-77.2-27.4-88.6-70.9c-0.3,2.8-0.4,5.6-0.4,8.5c0,49.1,39.9,89,89,89
		c49.1,0,89-39.9,89-89c0-2.7-0.2-5.4-0.4-8.1C176.7,120.4,146.3,146.4,100.1,146.4z"/>
	<path class="st0" d="M97.7,101.6l2.4,21l2.4-21c1.4-12.9,11.5-22.9,24.3-24.4l21.1-2.4l-21.1-2.4c-12.8-1.5-22.9-11.6-24.3-24.4
		l-2.4-21l-2.4,21C96.2,61,86.1,71,73.3,72.5l-21.1,2.4l21.1,2.4C86.1,78.7,96.2,88.8,97.7,101.6z"/>
	<path class="st0" d="M99.9,74.9c0,0.3,0.1,0.6,0.1,1c0-0.1,0.1-0.2,0.1-0.4L99.9,74.9z"/>
	<path d="M73.3,72.5C86.1,71,96.2,61,97.7,48.1l2.4-21l2.4,21c1.5,12.8,11.5,22.9,24.3,24.4l21.1,2.4l-21.1,2.4
		c-12.8,1.5-22.9,11.5-24.3,24.4l-2.4,21l-2.4-21c-1.5-12.8-11.5-22.9-24.4-24.4l-21.1-2.4L73.3,72.5z"/>
	<path d="M100,172.9c-49.1,0-89-39.9-89-89c0-2.9,0.1-5.7,0.4-8.5c11.5,43.5,42.3,70.9,88.6,70.9c46.2,0,76.6-26,88.5-70.5
		c0-0.3-0.1-0.6-0.1-1l0.2,0.6c0,0.1-0.1,0.2-0.1,0.4c0.2,2.7,0.4,5.4,0.4,8.1C189,133.1,149.1,172.9,100,172.9z"/>
</g>
</svg>
