<?xml version="1.0" encoding="utf-8"?>
<!-- Generator: Adobe Illustrator 28.2.0, SVG Export Plug-In . SVG Version: 6.00 Build 0)  -->
<svg version="1.1" id="Livello_1" xmlns="http://www.w3.org/2000/svg" xmlns:xlink="http://www.w3.org/1999/xlink" x="0px" y="0px"
	 viewBox="0 0 383 101" style="enable-background:new 0 0 383 101;" xml:space="preserve">
<style type="text/css">
	.st0{fill:none;stroke:#000000;stroke-width:0.5;stroke-miterlimit:10;}
	.st1{fill:#FFFFFF;}
	.st2{font-family:'NewYork';}
	.st3{font-size:88.4102px;}
	.st4{letter-spacing:-1;}
</style>
<g>
	<path d="M-599.5-19.78c0.24,2.35,0.36,4.73,0.36,7.14c0,38.55-31.25,69.8-69.8,69.8s-69.8-31.25-69.8-69.8
		c0-2.24,0.11-4.46,0.31-6.65l0,0c3.35,35.43,33.18,63.15,69.49,63.15c36.3,0,66.13-27.71,69.49-63.14L-599.5-19.78z"/>
	<path class="st0" d="M-655.95-46.39"/>
	<path class="st0" d="M-683.84-46.39"/>
	<path d="M-668.94-48.85l1.15,10.21c0.7,6.2,5.6,11.1,11.8,11.8l10.21,1.15l-10.21,1.15c-6.2,0.7-11.1,5.6-11.8,11.8l-1.15,10.21
		l-1.15-10.21c-0.7-6.2-5.6-11.1-11.8-11.8l-10.21-1.15l10.21-1.15c6.2-0.7,11.1-5.6,11.8-11.8L-668.94-48.85z"/>
	<text transform="matrix(1 0 0 1 -821.4512 136.5175)" class="st2 st3 st4">Ethereal</text>
</g>
<g>
	<path class="st1" d="M41.85,23.49L43,33.7c0.7,6.2,5.6,11.1,11.8,11.8l10.21,1.15L54.8,47.8c-6.2,0.7-11.1,5.6-11.8,11.8
		l-1.15,10.21L40.7,59.6c-0.7-6.2-5.6-11.1-11.8-11.8l-10.21-1.15L28.9,45.5c6.2-0.7,11.1-5.6,11.8-11.8L41.85,23.49z"/>
	<text transform="matrix(1 0 0 1 62.1858 81.4089)" class="st1 st2 st3 st4">Ethereal</text>
</g>
</svg>
